<svg aria-hidden="true" style="position: absolute; width: 0; height: 0; overflow: hidden;" version="1.1" xmlns="http://www.w3.org/2000/svg" xmlns:xlink="http://www.w3.org/1999/xlink">
<defs>
<symbol id="arrow-right" viewBox="0 0 32 32">
<path d="M17.455 16.667l-6.788 6.741 1.939 1.926 8.728-8.667-8.728-8.667-1.939 1.926 6.788 6.741z"></path>
</symbol>
<symbol id="arrow-go-top" viewBox="0 0 32 32">
<path d="M27.414 12.586l-10-10c-0.781-0.781-2.047-0.781-2.828 0l-10 10c-0.781 0.781-0.781 2.047 0 2.828s2.047 0.781 2.828 0l6.586-6.586v19.172c0 1.105 0.895 2 2 2s2-0.895 2-2v-19.172l6.586 6.586c0.39 0.39 0.902 0.586 1.414 0.586s1.024-0.195 1.414-0.586c0.781-0.781 0.781-2.047 0-2.828z"></path>
</symbol>
<symbol id="arrow-left" viewBox="0 0 32 32">
<path d="M14.545 16.667l6.788 6.741-1.939 1.926-8.727-8.667 8.727-8.667 1.939 1.926-6.788 6.741z"></path>
</symbol>
<symbol id="burger-menu" viewBox="0 0 32 32">
<path stroke-linejoin="round" stroke-linecap="round" stroke-miterlimit="4" stroke-width="2" d="M28 13.334h-24"></path>
<path stroke-linejoin="round" stroke-linecap="round" stroke-miterlimit="4" stroke-width="2" d="M28 8h-24"></path>
<path stroke-linejoin="round" stroke-linecap="round" stroke-miterlimit="4" stroke-width="2" d="M28 18.666h-24"></path>
<path stroke-linejoin="round" stroke-linecap="round" stroke-miterlimit="4" stroke-width="2" d="M28 24h-24"></path>
</symbol>
<symbol id="big-star-mobale-menu" viewBox="0 0 32 32">
<path fill="#fdfdff" style="fill: var(--color1, #fdfdff)" opacity="0.2" d="M10.093 28.737c6.78-2.096 14.196 0.172 18.645 5.7-2.096-6.78 0.171-14.196 5.7-18.645-6.78 2.096-14.196-0.172-18.645-5.7 2.096 6.78-0.171 14.196-5.7 18.645zM7.589 29.73c7.616-4.407 10.533-13.949 6.684-21.861l0.528-0.281c4.407 7.616 13.949 10.533 21.861 6.684l0.281 0.528c-7.616 4.407-10.533 13.949-6.683 21.861l-0.528 0.281c-4.407-7.616-13.949-10.533-21.861-6.684l-0.281-0.528z"></path>
<path fill="#fdfdff" style="fill: var(--color1, #fdfdff)" opacity="0.2" d="M29.389 31.518c0.407 1.446 0.618 2.634 0.63 3.495 0.006 0.431-0.038 0.748-0.111 0.962-0.071 0.211-0.152 0.276-0.194 0.298s-0.141 0.053-0.355-0.006c-0.218-0.060-0.505-0.2-0.86-0.446-0.707-0.492-1.575-1.33-2.546-2.477-1.936-2.285-4.199-5.693-6.319-9.681s-3.68-7.77-4.492-10.652c-0.407-1.446-0.618-2.634-0.63-3.495-0.006-0.431 0.038-0.748 0.111-0.962 0.071-0.211 0.152-0.276 0.194-0.298s0.141-0.053 0.356 0.006c0.218 0.060 0.505 0.199 0.86 0.446 0.707 0.492 1.575 1.33 2.546 2.477 1.936 2.285 4.199 5.693 6.319 9.681s3.68 7.77 4.492 10.652zM29.994 36.801c1.745-0.928-0.3-8.188-4.569-16.216s-9.144-13.784-10.889-12.856c-1.745 0.928 0.3 8.188 4.569 16.216s9.144 13.784 10.889 12.856z"></path>
<path fill="#fdfdff" style="fill: var(--color1, #fdfdff)" opacity="0.2" d="M13.012 29.389c-1.446 0.407-2.634 0.618-3.495 0.63-0.431 0.006-0.748-0.039-0.962-0.111-0.211-0.071-0.275-0.152-0.298-0.194s-0.053-0.141 0.006-0.355c0.060-0.218 0.199-0.505 0.446-0.86 0.492-0.707 1.33-1.575 2.477-2.546 2.285-1.936 5.693-4.199 9.681-6.319s7.77-3.68 10.652-4.492c1.446-0.407 2.634-0.618 3.495-0.63 0.431-0.006 0.748 0.039 0.962 0.111 0.211 0.071 0.276 0.152 0.298 0.194s0.053 0.141-0.006 0.355c-0.060 0.218-0.2 0.505-0.446 0.86-0.492 0.707-1.33 1.575-2.477 2.546-2.285 1.936-5.693 4.199-9.681 6.319s-7.77 3.68-10.652 4.492zM7.729 29.994c0.928 1.745 8.188-0.3 16.216-4.569s13.784-9.144 12.856-10.889c-0.928-1.745-8.188 0.3-16.216 4.569s-13.784 9.144-12.856 10.889z"></path>
</symbol>
<symbol id="cross" viewBox="0 0 32 32">
<path stroke-linejoin="round" stroke-linecap="round" stroke-miterlimit="4" stroke-width="2.6667" d="M24 8l-16 16"></path>
<path stroke-linejoin="round" stroke-linecap="round" stroke-miterlimit="4" stroke-width="2.6667" d="M8 8l16 16"></path>
</symbol>
<symbol id="chevron-down" viewBox="0 0 32 32">
<path fill="none" stroke="#fdfdff" style="stroke: var(--color1, #fdfdff)" stroke-linejoin="round" stroke-linecap="round" stroke-miterlimit="4" stroke-width="2.6667" d="M8 12l8 8 8-8"></path>
</symbol>
<symbol id="chevron-up" viewBox="0 0 32 32">
<path fill="none" stroke="#fdfdff" style="stroke: var(--color1, #fdfdff)" stroke-linejoin="round" stroke-linecap="round" stroke-miterlimit="4" stroke-width="2.6667" d="M8 20l8-8 8 8"></path>
</symbol>
<symbol id="glass" viewBox="0 0 37 32">
<path d="M32.894 0.904c-0.072-0.045-0.142-0.080-0.212-0.116-0.86-0.455-1.819-0.691-2.791-0.688h-0.011c-1.063 0.002-2.108 0.283-3.030 0.816s-1.69 1.299-2.227 2.222l-0.016 0.029c-0.435 0.754-0.698 1.595-0.772 2.463l-0.001 0.023h-12.727l-1.424-3.452c-0.32-0.781-0.906-1.423-1.653-1.808s-1.607-0.491-2.425-0.297l0.024-0.005-4.303 0.984 0.266 1.181 4.303-0.984c0.535-0.123 1.097-0.052 1.585 0.201s0.873 0.67 1.085 1.179l0.005 0.016 1.236 2.987h-8.082l13.513 13.591v9.951c-3.138 0.224-5.303 1.269-5.303 2.567v0.241h13.024v-0.241c0-1.296-2.169-2.347-5.303-2.567v-9.951l8.329-8.377c0.261 0.223 0.553 0.429 0.86 0.611l0.029 0.016c1.393 0.797 3.043 1.007 4.59 0.584s2.864-1.444 3.664-2.841 1.018-3.055 0.606-4.613c-0.412-1.558-1.42-2.888-2.804-3.701l-0.029-0.016-0.009-0.003zM34.218 5.58l-3.306 0.009 1.645-2.88c0.899 0.697 1.493 1.718 1.658 2.847l0.003 0.024zM31.517 2.101l-1.645 2.888-1.662-2.871c0.531-0.22 1.101-0.333 1.676-0.331 0.587 0 1.148 0.115 1.661 0.324l-0.029-0.011zM26.067 4.006c0.289-0.505 0.658-0.931 1.094-1.273l0.009-0.007 1.662 2.871-3.298 0.009c0.074-0.599 0.263-1.14 0.544-1.621l-0.011 0.020v0.001zM5.779 7.341h4.721l0.65 1.583h-3.796l-1.575-1.583zM25.524 8.925h-1.078v0.008h-12.002l-0.65-1.583h15.291l-1.562 1.575zM28.236 10.293l1.645-2.888 1.662 2.871c-0.494 0.211-1.070 0.333-1.673 0.333-0.589 0-1.151-0.116-1.664-0.328l0.029 0.012zM33.685 8.397c-0.279 0.491-0.65 0.924-1.092 1.273l-0.009 0.007-1.662-2.871 3.298-0.008c-0.076 0.57-0.261 1.119-0.545 1.619l0.012-0.021-0.001 0.001z"></path>
</symbol>
<symbol id="search" viewBox="0 0 32 32">
<path d="M29.092 31.514l-6.85-6.862c-1.077 0.935-2.334 1.663-3.77 2.185s-2.962 0.782-4.578 0.782c-3.877 0-7.163-1.349-9.855-4.046s-4.039-5.952-4.039-9.764c0-3.812 1.346-7.067 4.039-9.764s5.96-4.046 9.801-4.046c3.806 0 7.046 1.349 9.721 4.046s4.012 5.952 4.012 9.764c0 1.546-0.251 3.039-0.754 4.477s-1.257 2.787-2.262 4.046l6.958 6.862c0.323 0.288 0.485 0.656 0.485 1.106s-0.18 0.854-0.539 1.214c-0.323 0.324-0.718 0.486-1.185 0.486s-0.862-0.162-1.185-0.486zM13.84 24.383c2.908 0 5.385-1.034 7.432-3.102s3.070-4.558 3.070-7.471-1.023-5.403-3.070-7.471c-2.046-2.068-4.524-3.102-7.432-3.102-2.944 0-5.448 1.034-7.513 3.102s-3.097 4.558-3.097 7.471c0 2.913 1.032 5.403 3.097 7.471s4.569 3.102 7.513 3.102z"></path>
</symbol>
<symbol id="trash" viewBox="0 0 32 32">
<path fill="none" stroke-linejoin="round" stroke-linecap="round" stroke-miterlimit="4" stroke-width="2.6667" d="M21.333 8v-1.067c0-1.493 0-2.24-0.291-2.811-0.256-0.502-0.664-0.91-1.165-1.165-0.57-0.291-1.317-0.291-2.811-0.291h-2.133c-1.493 0-2.24 0-2.811 0.291-0.502 0.256-0.91 0.664-1.165 1.165-0.291 0.57-0.291 1.317-0.291 2.811v1.067M13.333 15.333v6.667M18.667 15.333v6.667M4 8h24M25.333 8v14.933c0 2.24 0 3.36-0.436 4.216-0.383 0.753-0.995 1.365-1.748 1.748-0.856 0.436-1.976 0.436-4.216 0.436h-5.867c-2.24 0-3.36 0-4.216-0.436-0.753-0.383-1.365-0.995-1.748-1.748-0.436-0.856-0.436-1.976-0.436-4.216v-14.933"></path>
</symbol>
<symbol id="heart" viewBox="0 0 32 32">
<path fill="none" stroke-linejoin="round" stroke-linecap="round" stroke-miterlimit="4" stroke-width="2.6667" d="M27.787 6.146c-0.681-0.681-1.49-1.222-2.379-1.591s-1.844-0.559-2.807-0.559-1.917 0.19-2.807 0.559c-0.89 0.369-1.699 0.909-2.38 1.591l-1.413 1.413-1.413-1.413c-1.376-1.376-3.241-2.148-5.187-2.148s-3.811 0.773-5.187 2.148c-1.376 1.376-2.148 3.241-2.148 5.187s0.773 3.811 2.148 5.187l11.787 11.787 11.787-11.787c0.681-0.681 1.222-1.49 1.591-2.38s0.559-1.844 0.559-2.807-0.19-1.917-0.559-2.807c-0.369-0.89-0.909-1.699-1.591-2.38z"></path>
</symbol>
<symbol id="fullheart" viewBox="0 0 32 32">
    <path stroke-linejoin="round" stroke-linecap="round" stroke-miterlimit="4" stroke-width="2.6667"
        d="M27.787 6.146c-0.681-0.681-1.49-1.222-2.379-1.591s-1.844-0.559-2.807-0.559-1.917 0.19-2.807 0.559c-0.89 0.369-1.699 0.909-2.38 1.591l-1.413 1.413-1.413-1.413c-1.376-1.376-3.241-2.148-5.187-2.148s-3.811 0.773-5.187 2.148c-1.376 1.376-2.148 3.241-2.148 5.187s0.773 3.811 2.148 5.187l11.787 11.787 11.787-11.787c0.681-0.681 1.222-1.49 1.591-2.38s0.559-1.844 0.559-2.807-0.19-1.917-0.559-2.807c-0.369-0.89-0.909-1.699-1.591-2.38z">
    </path>
</symbol>
<symbol id="instagram" viewBox="0 0 32 32">
<path d="M19.991 11.115c-0.177 0-0.35 0.053-0.498 0.151s-0.262 0.238-0.33 0.402c-0.068 0.164-0.086 0.344-0.051 0.518s0.12 0.333 0.245 0.459c0.125 0.125 0.285 0.211 0.459 0.245s0.354 0.017 0.518-0.051c0.164-0.068 0.304-0.183 0.402-0.33s0.151-0.321 0.151-0.498c0-0.238-0.094-0.466-0.262-0.634s-0.396-0.262-0.634-0.262zM23.426 12.922c-0.014-0.62-0.13-1.232-0.343-1.814-0.19-0.498-0.485-0.949-0.866-1.322-0.37-0.383-0.822-0.676-1.322-0.859-0.58-0.219-1.194-0.338-1.814-0.351-0.791-0.045-1.045-0.045-3.076-0.045s-2.285 0-3.076 0.045c-0.62 0.013-1.234 0.132-1.814 0.351-0.499 0.184-0.951 0.478-1.322 0.859-0.383 0.37-0.676 0.822-0.859 1.322-0.219 0.58-0.338 1.194-0.351 1.814-0.045 0.791-0.045 1.045-0.045 3.076s0 2.285 0.045 3.076c0.013 0.62 0.132 1.234 0.351 1.814 0.182 0.5 0.476 0.952 0.859 1.322 0.371 0.381 0.823 0.675 1.322 0.859 0.58 0.219 1.194 0.338 1.814 0.351 0.791 0.045 1.045 0.045 3.076 0.045s2.285 0 3.076-0.045c0.62-0.013 1.234-0.132 1.814-0.351 0.5-0.182 0.952-0.476 1.322-0.859 0.382-0.371 0.678-0.823 0.866-1.322 0.213-0.582 0.329-1.195 0.343-1.814 0-0.791 0.045-1.045 0.045-3.076s0-2.285-0.045-3.076zM22.082 18.985c-0.005 0.474-0.091 0.944-0.254 1.389-0.119 0.325-0.311 0.619-0.56 0.859-0.242 0.247-0.535 0.438-0.859 0.56-0.445 0.163-0.915 0.248-1.389 0.254-0.747 0.037-1.023 0.045-2.987 0.045s-2.24 0-2.987-0.045c-0.492 0.009-0.982-0.067-1.449-0.224-0.309-0.128-0.589-0.319-0.821-0.56-0.248-0.24-0.437-0.534-0.553-0.859-0.182-0.452-0.283-0.932-0.299-1.419 0-0.747-0.045-1.023-0.045-2.987s0-2.24 0.045-2.987c0.003-0.485 0.092-0.965 0.261-1.419 0.132-0.315 0.333-0.596 0.59-0.821 0.227-0.257 0.507-0.461 0.821-0.597 0.455-0.164 0.935-0.25 1.419-0.254 0.747 0 1.023-0.045 2.987-0.045s2.24 0 2.987 0.045c0.474 0.005 0.944 0.091 1.389 0.254 0.339 0.126 0.644 0.331 0.889 0.597 0.245 0.229 0.436 0.51 0.56 0.821 0.166 0.455 0.252 0.935 0.254 1.419 0.037 0.747 0.045 1.023 0.045 2.987s-0.007 2.24-0.045 2.987zM16.004 12.168c-0.757 0.001-1.497 0.227-2.126 0.649s-1.119 1.020-1.408 1.721c-0.289 0.7-0.364 1.47-0.215 2.212s0.514 1.424 1.050 1.959c0.536 0.535 1.219 0.899 1.961 1.046s1.513 0.071 2.212-0.219c0.699-0.29 1.297-0.781 1.718-1.411s0.645-1.37 0.645-2.127c0.001-0.504-0.098-1.003-0.29-1.469s-0.475-0.889-0.832-1.245c-0.357-0.356-0.78-0.638-1.246-0.83s-0.965-0.289-1.469-0.287zM16.004 18.484c-0.492 0-0.972-0.146-1.381-0.419s-0.728-0.662-0.916-1.116c-0.188-0.454-0.237-0.954-0.142-1.437s0.333-0.925 0.68-1.273c0.348-0.348 0.791-0.585 1.273-0.68s0.982-0.047 1.437 0.142c0.454 0.188 0.843 0.507 1.116 0.916s0.419 0.89 0.419 1.381c0 0.326-0.064 0.65-0.189 0.952s-0.308 0.576-0.539 0.807c-0.231 0.231-0.505 0.414-0.807 0.539s-0.625 0.189-0.952 0.189z"></path>
<path fill="none" stroke-linejoin="miter" stroke-linecap="butt" stroke-miterlimit="4" stroke-width="0.8" d="M4.8 0.4h22.4c2.43 0 4.4 1.97 4.4 4.4v22.4c0 2.43-1.97 4.4-4.4 4.4h-22.4c-2.43 0-4.4-1.97-4.4-4.4v-22.4c0-2.43 1.97-4.4 4.4-4.4z"></path>
</symbol>
<symbol id="you-tube" viewBox="0 0 32 32">
<path d="M20.532 10.5c-0.748-0.044-2.288-0.088-4.62-0.088h-0.308c-2.244 0-3.74 0.044-4.488 0.132-1.012 0.088-1.716 0.352-2.112 0.704-0.352 0.308-0.616 0.88-0.704 1.628-0.044 0.484-0.088 1.496-0.088 3.036v0.22c0 1.452 0.044 2.464 0.132 2.948 0.132 0.704 0.352 1.232 0.792 1.54 0.44 0.352 1.188 0.572 2.244 0.66 0.748 0.044 2.288 0.088 4.62 0.088h0.308c2.244 0 3.74-0.044 4.488-0.132 1.012-0.088 1.716-0.352 2.112-0.704 0.352-0.308 0.616-0.88 0.704-1.628 0.044-0.484 0.088-1.496 0.088-3.036v-0.22c0-1.452-0.044-2.464-0.132-2.948-0.132-0.704-0.352-1.232-0.792-1.54-0.44-0.352-1.188-0.572-2.244-0.66zM18.816 15.912l-4.84 2.904v-5.808l4.84 2.904z"></path>
<path fill="none" stroke-linejoin="miter" stroke-linecap="butt" stroke-miterlimit="4" stroke-width="0.8" d="M4.8 0.4h22.4c2.43 0 4.4 1.97 4.4 4.4v22.4c0 2.43-1.97 4.4-4.4 4.4h-22.4c-2.43 0-4.4-1.97-4.4-4.4v-22.4c0-2.43 1.97-4.4 4.4-4.4z"></path>
<symbol id="facebook" viewBox="0 0 32 32">
<path d="M18.425 10.801h1.462v-2.473c-0.708-0.074-1.419-0.11-2.131-0.109-2.116 0-3.562 1.291-3.562 3.656v2.038h-2.388v2.769h2.388v7.093h2.862v-7.093h2.38l0.358-2.769h-2.738v-1.766c0-0.817 0.218-1.346 1.369-1.346z"></path>
<path fill="none" stroke-linejoin="miter" stroke-linecap="butt" stroke-miterlimit="4" stroke-width="0.8" d="M4.8 0.4h22.4c2.43 0 4.4 1.97 4.4 4.4v22.4c0 2.43-1.97 4.4-4.4 4.4h-22.4c-2.43 0-4.4-1.97-4.4-4.4v-22.4c0-2.43 1.97-4.4 4.4-4.4z"></path>
</symbol>
<symbol id="cocktails" viewBox="0 0 37 32">
<symbol id="popup-close-btn" viewBox="0 0 32 32">
<path stroke-linejoin="round" stroke-linecap="round" stroke-miterlimit="4" stroke-width="2.9091" d="M24 8l-16 16"></path>
<path stroke-linejoin="round" stroke-linecap="round" stroke-miterlimit="4" stroke-width="2.9091" d="M8 8l16 16"></path>
</symbol>
<path fill="#fdfdff" style="fill: var(--color1, #fdfdff)" d="M18.824 4.039c-0.074 0-0.795 0.056-0.896 0.89h-0.118s0.035-0.814-0.896-0.857l0.005-0.129c0.074 0 0.765-0.031 0.867-0.866h0.118s-0.080 0.752 0.92 0.87v0.091zM6.251 17.802c-0.074 0-0.795 0.057-0.896 0.89h-0.118s0.035-0.814-0.896-0.857l0.005-0.129c0.074 0 0.765-0.031 0.868-0.866h0.118s-0.080 0.752 0.92 0.87v0.091zM37.254 17.302c-0.074 0-0.795 0.057-0.896 0.89h-0.118s0.035-0.814-0.896-0.857l0.005-0.129c0.074 0 0.765-0.031 0.867-0.866h0.118s-0.080 0.752 0.92 0.87v0.091zM13.973 6.969c-0.053 0-0.572 0.041-0.644 0.64h-0.084s0.025-0.585-0.645-0.616l0.004-0.093c0.053 0 0.551-0.023 0.623-0.622h0.084s-0.057 0.54 0.662 0.626v0.066h0.001zM3.019 13.634c-0.053 0-0.572 0.040-0.644 0.64h-0.084s0.025-0.585-0.645-0.616l0.003-0.093c0.053 0 0.551-0.023 0.623-0.622h0.084s-0.057 0.54 0.661 0.626v0.066h0.001zM12.44 23.968c-0.053 0-0.572 0.040-0.644 0.641h-0.084s0.025-0.585-0.645-0.616l0.003-0.093c0.053 0 0.551-0.023 0.623-0.622h0.084s-0.057 0.541 0.662 0.625v0.066l0.001-0.001zM34.964 12.677c-0.035 0-0.37 0.026-0.417 0.415h-0.055s0.016-0.379-0.417-0.4l0.003-0.060c0.035 0 0.356-0.014 0.404-0.403h0.055s-0.037 0.351 0.428 0.405v0.042zM34.207 24.104c-0.053 0-0.571 0.040-0.645 0.64h-0.084s0.025-0.585-0.644-0.616l0.003-0.093c0.053 0 0.551-0.023 0.623-0.622h0.085s-0.057 0.54 0.661 0.625v0.066h0.001zM13.826 0.631c-0.041 0-0.449 0.032-0.507 0.503h-0.067s0.019-0.46-0.506-0.485l0.003-0.072c0.041 0 0.432-0.018 0.49-0.489h0.067s-0.046 0.425 0.519 0.491v0.051h0.001zM33.96 2.597c-0.041 0-0.449 0.032-0.507 0.503h-0.067s0.019-0.46-0.506-0.485l0.003-0.072c0.041 0 0.433-0.018 0.49-0.489h0.067s-0.046 0.425 0.519 0.492v0.051h0.001zM10.163 19.317c-0.025 0-0.262 0.018-0.296 0.293h-0.039s0.012-0.268-0.296-0.282l0.002-0.042c0.025 0 0.252-0.010 0.286-0.286h0.039s-0.026 0.248 0.303 0.287v0.030zM7.166 2.894c-0.025 0-0.262 0.019-0.296 0.293h-0.039s0.012-0.268-0.296-0.282l0.002-0.042c0.025 0 0.253-0.010 0.287-0.286h0.039s-0.026 0.248 0.303 0.287v0.031zM2.832 23.475c-0.039 0-0.416 0.030-0.47 0.466h-0.062s0.019-0.427-0.469-0.449l0.003-0.067c0.039 0 0.401-0.016 0.454-0.454h0.062s-0.042 0.394 0.481 0.455v0.048zM33.421 7.692c-0.025 0-0.262 0.018-0.296 0.293h-0.039s0.012-0.268-0.296-0.282l0.002-0.042c0.025 0 0.253-0.010 0.286-0.286h0.039s-0.026 0.248 0.303 0.287v0.030zM24.915 0.317c-0.025 0-0.262 0.019-0.296 0.293h-0.039s0.012-0.268-0.296-0.282l0.002-0.042c0.025 0 0.253-0.010 0.286-0.286h0.039s-0.026 0.248 0.303 0.287v0.030zM17.644 21.694c-0.025 0-0.262 0.019-0.296 0.293h-0.039s0.012-0.268-0.296-0.282l0.002-0.042c0.024 0 0.253-0.010 0.286-0.286h0.039s-0.026 0.248 0.303 0.287v0.030z"></path>
<path fill="#fdfdff" style="fill: var(--color1, #fdfdff)" d="M35.287 30.541c0 0.286-7.899 0.517-17.644 0.517s-17.644-0.232-17.644-0.517 7.899-0.517 17.644-0.517c9.744 0 17.644 0.232 17.644 0.517z"></path>
<path fill="#9cdfdf" style="fill: var(--color2, #9cdfdf)" d="M19.704 9.826s0.1 3.674 0.349 5.581c0.249 1.907 1.896 15.022 1.896 15.022h4.441v-28.463h-3.093v3.209s-2.595 0.698-2.495 3.768l-1.097 0.884zM33.076 9.826s-0.1 3.674-0.349 5.581c-0.249 1.907-1.896 15.022-1.896 15.022h-4.441v-28.463h3.093v3.209s2.595 0.698 2.495 3.768l1.097 0.884z"></path>
<path fill="#fdfdff" style="fill: var(--color1, #fdfdff)" opacity="0.5" d="M19.704 9.826s0.1 3.674 0.349 5.581c0.249 1.907 1.896 15.022 1.896 15.022h4.441v-28.463h-3.093v3.209s-2.595 0.698-2.495 3.768l-1.097 0.884zM33.076 9.826s-0.1 3.674-0.349 5.581c-0.249 1.907-1.896 15.022-1.896 15.022h-4.441v-28.463h3.093v3.209s2.595 0.698 2.495 3.768l1.097 0.884z"></path>
<path fill="#fdfdff" style="fill: var(--color1, #fdfdff)" opacity="0.3" d="M23.876 5.165l-0.044-3.199h1.536l-0.275 3.199h-1.217zM23.61 9.826h-2.986l2.423 20.604h2.873l-2.31-20.604z"></path>
<path fill="#9cdfdf" style="fill: var(--color2, #9cdfdf)" d="M19.704 9.827c1.986-0.012 4.335-0.020 6.686-0.020s4.7 0.007 7.047 0.021l-0.361-0.002c-4.283 0.026-9.089 0.026-13.372 0z"></path>
<path fill="#fdfdff" style="fill: var(--color1, #fdfdff)" opacity="0.3" d="M22.049 8.92s-0.097-1.559 0.414-2.385c0.511-0.826 1.412-1.37 1.412-1.37h1.217s-1.796 0.81-1.526 3.755h-1.518z"></path>
<path fill="#9cdfdf" style="fill: var(--color2, #9cdfdf)" d="M4.914 30.43s0.391-1.673 0.559-2.454c0.167-0.781 0.335-1.394 0.335-1.394h2.403s0.584 2.636 0.759 3.703c0.008 0.052 0.016 0.1 0.023 0.145h-4.080z"></path>
<path fill="#fdfdff" style="fill: var(--color1, #fdfdff)" opacity="0.7" d="M4.914 30.43s0.391-1.673 0.559-2.454c0.167-0.781 0.335-1.394 0.335-1.394h2.403s0.584 2.636 0.759 3.703c0.008 0.052 0.016 0.1 0.023 0.145h-4.080z"></path>
<path fill="#fdfdff" style="fill: var(--color1, #fdfdff)" opacity="0.4" d="M5.507 30.43l0.479-3.473h0.74l-0.121 3.473h-1.098z"></path>
<path fill="#9cdfdf" style="fill: var(--color2, #9cdfdf)" d="M4.718 22.147s0.084 1.171 0.307 2.203c0.224 1.032 0.475 2.621 0.475 2.621h2.934s0.391-2.175 0.53-2.705c0.139-0.529 0.252-2.119 0.252-2.119l-4.498 0.001z"></path>
<path fill="#fdfdff" style="fill: var(--color1, #fdfdff)" opacity="0.7" d="M4.718 22.147s0.084 1.171 0.307 2.203c0.224 1.032 0.475 2.621 0.475 2.621h2.934s0.391-2.175 0.53-2.705c0.139-0.529 0.252-2.119 0.252-2.119l-4.498 0.001z"></path>
<path fill="#242424" style="fill: var(--color3, #242424)" opacity="0.3" d="M8.293 26.975h-2.609l-0.030 0.211h2.695l-0.057-0.211z"></path>
<path fill="#fdfdff" style="fill: var(--color1, #fdfdff)" opacity="0.4" d="M5.296 22.147l0.69 4.809h0.74s-0.656-4.027-0.589-4.809h-0.841z"></path>
<path fill="#7e8fdd" style="fill: var(--color4, #7e8fdd)" d="M24.552 27.462c0.578-2.185-0.833-4.451-3.151-5.062s-4.665 0.665-5.243 2.85c-0.578 2.185 0.833 4.451 3.151 5.062s4.666-0.665 5.244-2.85z"></path>
<path fill="#242424" style="fill: var(--color3, #242424)" opacity="0.3" d="M24.552 27.462c0.578-2.185-0.833-4.451-3.151-5.062s-4.665 0.665-5.243 2.85c-0.578 2.185 0.833 4.451 3.151 5.062s4.666-0.665 5.244-2.85z"></path>
<path fill="#7e8fdd" style="fill: var(--color4, #7e8fdd)" d="M23.453 28.675c1.319-1.836 0.897-4.392-0.943-5.709s-4.401-0.895-5.72 0.941c-1.319 1.836-0.897 4.392 0.943 5.709s4.401 0.895 5.72-0.941z"></path>
<path fill="#7e8fdd" style="fill: var(--color4, #7e8fdd)" d="M20.378 30.204c2.168-0.145 3.808-2.016 3.664-4.18s-2.020-3.801-4.188-3.657c-2.168 0.145-3.808 2.016-3.664 4.18s2.020 3.801 4.188 3.657z"></path>
<path fill="#fdfdff" style="fill: var(--color1, #fdfdff)" opacity="0.8" d="M20.378 30.204c2.168-0.145 3.808-2.016 3.664-4.18s-2.020-3.801-4.188-3.657c-2.168 0.145-3.808 2.016-3.664 4.18s2.020 3.801 4.188 3.657z"></path>
<path fill="#7e8fdd" style="fill: var(--color4, #7e8fdd)" d="M16.584 25.769c-0.025 0.158-0.039 0.339-0.039 0.524 0 0.521 0.112 1.015 0.314 1.46l-0.009-0.022c0.036 0.079 0.114 0.132 0.205 0.132 0.041 0 0.080-0.011 0.113-0.031l-0.001 0.001 2.353-1.368c0.032-0.017 0.054-0.051 0.054-0.089 0-0.047-0.032-0.087-0.076-0.098l-0.001-0-2.637-0.693c-0.017-0.005-0.036-0.007-0.056-0.007-0.103 0-0.19 0.070-0.215 0.165l-0 0.002-0.005 0.025h0.001zM19.668 26.719l-2.354 1.367c-0.066 0.040-0.11 0.111-0.11 0.193 0 0.042 0.011 0.081 0.031 0.114l-0.001-0.001c0.004 0.007 0.008 0.013 0.013 0.019 0.4 0.534 0.934 0.947 1.554 1.191l0.024 0.008c0.116 0.045 0.245-0.013 0.29-0.128l0.007-0.022 0.695-2.629c0.002-0.008 0.004-0.017 0.004-0.027 0-0.046-0.031-0.085-0.074-0.097l-0.001-0c-0.008-0.002-0.017-0.004-0.027-0.004-0.019 0-0.037 0.005-0.052 0.015l0-0v-0.001zM20.103 26.908l-0.695 2.629c-0.005 0.017-0.007 0.037-0.007 0.057 0 0.112 0.083 0.205 0.191 0.22l0.001 0c0.667 0.099 1.348 0.007 1.965-0.266 0.079-0.035 0.134-0.113 0.134-0.204 0-0.032-0.007-0.063-0.019-0.091l0.001 0.001c-0.003-0.007-0.008-0.015-0.012-0.023l-1.371-2.349c-0.018-0.031-0.051-0.052-0.088-0.052-0.047 0-0.087 0.033-0.098 0.077l-0 0.001v-0.001zM16.937 25.301l2.633 0.693c0.054 0.014 0.11-0.018 0.125-0.072 0.002-0.008 0.003-0.017 0.003-0.026 0-0.019-0.005-0.036-0.014-0.051l0 0-1.371-2.349c-0.039-0.067-0.111-0.111-0.193-0.111-0.041 0-0.080 0.011-0.114 0.031l0.001-0.001c-0.007 0.004-0.014 0.008-0.020 0.013-0.535 0.398-0.949 0.931-1.194 1.55l-0.008 0.024c-0.010 0.024-0.015 0.052-0.015 0.081 0 0.103 0.070 0.19 0.165 0.216l0.002 0h-0.001zM20.543 26.735l1.371 2.349c0.039 0.067 0.111 0.11 0.192 0.11 0.050 0 0.096-0.016 0.133-0.044l-0.001 0c0.535-0.398 0.949-0.932 1.194-1.551l0.008-0.024c0.010-0.024 0.015-0.052 0.015-0.081 0-0.103-0.070-0.189-0.165-0.215l-0.002-0-2.634-0.694c-0.008-0.002-0.017-0.003-0.026-0.003-0.047 0-0.087 0.032-0.099 0.075l-0 0.001c-0.002 0.008-0.003 0.017-0.003 0.026 0 0.019 0.005 0.037 0.015 0.052l-0-0 0.001-0.001zM20.125 25.675l0.695-2.629c0.005-0.017 0.007-0.037 0.007-0.057 0-0.104-0.071-0.191-0.166-0.216l-0.002-0-0.024-0.005c-0.157-0.025-0.339-0.039-0.524-0.039-0.522 0-1.018 0.112-1.464 0.314l0.022-0.009c-0.079 0.035-0.133 0.114-0.133 0.204 0 0.041 0.011 0.080 0.031 0.113l-0.001-0.001 1.371 2.349c0.018 0.030 0.051 0.050 0.088 0.050 0.019 0 0.037-0.005 0.052-0.014l-0 0c0.023-0.013 0.039-0.035 0.046-0.060l0-0.001h0.001zM20.559 25.863l2.353-1.368c0.067-0.039 0.111-0.11 0.111-0.192 0-0.050-0.017-0.096-0.044-0.133l0 0.001c-0.4-0.534-0.934-0.947-1.554-1.191l-0.024-0.008c-0.024-0.010-0.052-0.015-0.081-0.015-0.103 0-0.19 0.070-0.215 0.165l-0 0.002-0.695 2.629c-0.002 0.008-0.003 0.017-0.003 0.026 0 0.047 0.032 0.087 0.075 0.099l0.001 0c0.026 0.007 0.054 0.003 0.078-0.011l-0.001-0.001zM20.732 26.302l2.633 0.693c0.017 0.005 0.037 0.008 0.057 0.008 0.111 0 0.204-0.082 0.22-0.189l0-0.001c0.025-0.158 0.040-0.341 0.040-0.527 0-0.52-0.112-1.013-0.314-1.457l0.009 0.022c-0.036-0.078-0.114-0.132-0.204-0.132-0.033 0-0.065 0.007-0.094 0.020l0.001-0.001c-0.007 0.003-0.013 0.007-0.020 0.011l-2.354 1.367c-0.030 0.018-0.050 0.050-0.050 0.087 0 0.047 0.032 0.086 0.075 0.098l0.001 0z"></path>
<path fill="#fdfdff" style="fill: var(--color1, #fdfdff)" opacity="0.3" d="M16.584 25.769c-0.025 0.158-0.039 0.339-0.039 0.525 0 0.521 0.112 1.015 0.314 1.46l-0.009-0.022c0.036 0.078 0.114 0.132 0.204 0.132 0.033 0 0.065-0.007 0.094-0.020l-0.001 0.001 0.020-0.010 2.353-1.368c0.033-0.017 0.055-0.051 0.055-0.089 0-0.047-0.033-0.087-0.077-0.098l-0.001-0-2.637-0.693c-0.017-0.005-0.036-0.007-0.056-0.007-0.103 0-0.19 0.070-0.215 0.165l-0 0.002c-0.002 0.008-0.003 0.016-0.005 0.024h0.001zM19.668 26.719l-2.354 1.367c-0.066 0.040-0.11 0.111-0.11 0.193 0 0.042 0.011 0.081 0.031 0.114l-0.001-0.001c0.004 0.007 0.008 0.014 0.013 0.019 0.401 0.541 0.949 0.957 1.578 1.2 0.024 0.010 0.052 0.015 0.081 0.015 0.095 0 0.176-0.059 0.208-0.142l0.001-0.002 0.007-0.022 0.695-2.629c0.002-0.008 0.004-0.017 0.004-0.027 0-0.046-0.031-0.085-0.074-0.097l-0.001-0c-0.008-0.002-0.017-0.004-0.027-0.004-0.019 0-0.037 0.005-0.052 0.015l0-0v-0.001zM20.103 26.908l-0.695 2.629c-0.005 0.017-0.007 0.037-0.007 0.057 0 0.112 0.083 0.205 0.191 0.22l0.001 0c0.667 0.099 1.348 0.007 1.965-0.266 0.079-0.035 0.134-0.113 0.134-0.204 0-0.032-0.007-0.063-0.019-0.091l0.001 0.001c-0.003-0.008-0.008-0.015-0.012-0.023l-1.371-2.349c-0.018-0.031-0.050-0.052-0.088-0.052-0.018 0-0.035 0.005-0.050 0.013l0-0c-0.024 0.013-0.042 0.036-0.049 0.063l-0 0.001v-0.001zM16.937 25.301l2.633 0.693c0.054 0.014 0.11-0.018 0.125-0.072 0.002-0.008 0.003-0.017 0.003-0.026 0-0.019-0.005-0.036-0.014-0.051l0 0-1.371-2.349c-0.039-0.067-0.111-0.111-0.192-0.111-0.041 0-0.080 0.011-0.114 0.031l0.001-0.001c-0.007 0.004-0.014 0.008-0.020 0.013-0.535 0.398-0.949 0.931-1.194 1.55l-0.008 0.024c-0.010 0.024-0.015 0.052-0.015 0.081 0 0.103 0.070 0.19 0.165 0.216l0.002 0h-0.001zM20.543 26.735l1.371 2.349c0.039 0.067 0.111 0.111 0.193 0.111 0.041 0 0.080-0.011 0.114-0.031l-0.001 0.001c0.007-0.004 0.014-0.008 0.020-0.014 0.535-0.398 0.949-0.932 1.194-1.551l0.008-0.024c0.010-0.024 0.015-0.052 0.015-0.081 0-0.094-0.058-0.174-0.14-0.207l-0.002-0.001c-0.007-0.003-0.015-0.006-0.024-0.007l-0.001-0-2.634-0.694c-0.008-0.002-0.017-0.003-0.026-0.003-0.047 0-0.087 0.032-0.099 0.075l-0 0.001c-0.002 0.008-0.003 0.017-0.003 0.026 0 0.019 0.005 0.037 0.015 0.052l-0-0 0.001-0.001zM20.125 25.675l0.695-2.629c0.005-0.017 0.007-0.037 0.007-0.057 0-0.104-0.071-0.191-0.166-0.216l-0.002-0-0.024-0.005c-0.157-0.025-0.339-0.039-0.524-0.039-0.522 0-1.018 0.112-1.464 0.314l0.022-0.009c-0.079 0.035-0.133 0.114-0.133 0.204 0 0.041 0.011 0.080 0.031 0.113l-0.001-0.001 1.371 2.349c0.018 0.030 0.051 0.050 0.088 0.050 0.019 0 0.037-0.005 0.052-0.014l-0 0c0.023-0.013 0.039-0.035 0.046-0.060l0-0.001h0.001zM20.559 25.863l2.353-1.368c0.067-0.039 0.111-0.11 0.111-0.192 0-0.050-0.017-0.096-0.044-0.133l0 0.001c-0.4-0.534-0.934-0.947-1.554-1.191l-0.024-0.008c-0.024-0.010-0.052-0.015-0.081-0.015-0.103 0-0.19 0.070-0.215 0.165l-0 0.002-0.695 2.628c-0.002 0.008-0.003 0.017-0.003 0.026 0 0.047 0.032 0.087 0.075 0.099l0.001 0c0.026 0.007 0.054 0.003 0.078-0.011l-0.001-0.001zM20.732 26.302l2.633 0.693c0.017 0.005 0.037 0.008 0.057 0.008 0.111 0 0.204-0.082 0.22-0.189l0-0.001c0.025-0.158 0.040-0.341 0.040-0.527 0-0.52-0.112-1.013-0.314-1.457l0.009 0.022c-0.036-0.078-0.114-0.132-0.205-0.132-0.033 0-0.065 0.007-0.093 0.020l0.001-0.001c-0.007 0.003-0.013 0.007-0.020 0.011l-2.354 1.367c-0.030 0.018-0.049 0.050-0.049 0.087 0 0.047 0.032 0.086 0.075 0.098l0.001 0z"></path>
<path fill="#7e8fdd" style="fill: var(--color4, #7e8fdd)" d="M18.145 26.48c0.112-0.014 0.209 0.017 0.216 0.071s-0.078 0.109-0.191 0.123c-0.112 0.014-0.209-0.017-0.216-0.071s0.078-0.11 0.191-0.123z"></path>
<path fill="#fdfdff" style="fill: var(--color1, #fdfdff)" opacity="0.6" d="M18.145 26.48c0.112-0.014 0.209 0.017 0.216 0.071s-0.078 0.109-0.191 0.123c-0.112 0.014-0.209-0.017-0.216-0.071s0.078-0.11 0.191-0.123z"></path>
<path fill="#7e8fdd" style="fill: var(--color4, #7e8fdd)" d="M18.824 27.57c0.084-0.075 0.182-0.103 0.218-0.063s-0.003 0.134-0.088 0.209c-0.085 0.074-0.182 0.104-0.219 0.063s0.006-0.131 0.089-0.209z"></path>
<path fill="#fdfdff" style="fill: var(--color1, #fdfdff)" opacity="0.6" d="M18.824 27.57c0.084-0.075 0.182-0.103 0.218-0.063s-0.003 0.134-0.088 0.209c-0.085 0.074-0.182 0.104-0.219 0.063s0.006-0.131 0.089-0.209z"></path>
<path fill="#7e8fdd" style="fill: var(--color4, #7e8fdd)" d="M18.781 28.475c0.067-0.091 0.155-0.14 0.199-0.108s0.025 0.131-0.040 0.223c-0.066 0.092-0.156 0.14-0.199 0.108s-0.026-0.131 0.041-0.223z"></path>
<path fill="#fdfdff" style="fill: var(--color1, #fdfdff)" opacity="0.6" d="M18.781 28.475c0.067-0.091 0.155-0.14 0.199-0.108s0.025 0.131-0.040 0.223c-0.066 0.092-0.156 0.14-0.199 0.108s-0.026-0.131 0.041-0.223z"></path>
<path fill="#7e8fdd" style="fill: var(--color4, #7e8fdd)" d="M21.276 24.023c0.061-0.096 0.146-0.15 0.192-0.122s0.035 0.129-0.025 0.226c-0.060 0.097-0.146 0.15-0.192 0.122s-0.033-0.128 0.025-0.226z"></path>
<path fill="#fdfdff" style="fill: var(--color1, #fdfdff)" opacity="0.6" d="M21.276 24.023c0.061-0.096 0.146-0.15 0.192-0.122s0.035 0.129-0.025 0.226c-0.060 0.097-0.146 0.15-0.192 0.122s-0.033-0.128 0.025-0.226z"></path>
<path fill="#7e8fdd" style="fill: var(--color4, #7e8fdd)" d="M21.251 24.907c0.066-0.092 0.155-0.14 0.199-0.109s0.025 0.131-0.041 0.223c-0.066 0.092-0.155 0.14-0.199 0.109s-0.026-0.131 0.041-0.223z"></path>
<path fill="#fdfdff" style="fill: var(--color1, #fdfdff)" opacity="0.6" d="M21.251 24.907c0.066-0.092 0.155-0.14 0.199-0.109s0.025 0.131-0.041 0.223c-0.066 0.092-0.155 0.14-0.199 0.109s-0.026-0.131 0.041-0.223zM22.422 26.111c0.112-0.018 0.209 0.011 0.218 0.064s-0.075 0.11-0.188 0.129c-0.111 0.019-0.209-0.011-0.218-0.064s0.074-0.111 0.188-0.129zM18.157 24.639c-0.072-0.088-0.095-0.186-0.053-0.22s0.134 0.010 0.205 0.097c0.072 0.088 0.096 0.186 0.053 0.22s-0.133-0.009-0.205-0.097zM18.426 25.375c-0.113-0.006-0.202-0.056-0.199-0.109s0.098-0.092 0.21-0.086c0.113 0.006 0.202 0.056 0.199 0.11s-0.097 0.093-0.21 0.086v-0.001zM19.483 23.987c-0.012-0.112 0.024-0.207 0.077-0.213 0.053-0.005 0.106 0.082 0.117 0.194s-0.024 0.207-0.077 0.213c-0.053 0.005-0.106-0.081-0.117-0.194z"></path>
<path fill="#7e8fdd" style="fill: var(--color4, #7e8fdd)" d="M20.639 28.754c-0.012-0.111 0.022-0.207 0.074-0.213s0.107 0.081 0.119 0.194c0.013 0.112-0.022 0.207-0.074 0.213s-0.106-0.081-0.119-0.194z"></path>
<path fill="#fdfdff" style="fill: var(--color1, #fdfdff)" opacity="0.6" d="M20.639 28.754c-0.012-0.111 0.022-0.207 0.074-0.213s0.107 0.081 0.119 0.194c0.013 0.112-0.022 0.207-0.074 0.213s-0.106-0.081-0.119-0.194z"></path>
<path fill="#7e8fdd" style="fill: var(--color4, #7e8fdd)" d="M21.516 27.356c-0.095-0.063-0.146-0.15-0.117-0.195s0.131-0.031 0.226 0.031c0.095 0.062 0.146 0.149 0.117 0.195s-0.132 0.030-0.226-0.031z"></path>
<path fill="#fdfdff" style="fill: var(--color1, #fdfdff)" opacity="0.6" d="M21.516 27.356c-0.095-0.063-0.146-0.15-0.117-0.195s0.131-0.031 0.226 0.031c0.095 0.062 0.146 0.149 0.117 0.195s-0.132 0.030-0.226-0.031z"></path>
<path fill="#7e8fdd" style="fill: var(--color4, #7e8fdd)" d="M22.297 10.996h-15.877s0.091 4.781 5.064 5.828c0 0-0.33 3.322 2.464 3.659v7.954c-2.952 0.189-4.185 1.994-4.185 1.994h9.555s-1.395-1.806-4.366-1.994v-7.979c2.599-0.456 2.282-3.633 2.282-3.633 4.973-1.047 5.064-5.828 5.064-5.828v-0.001z"></path>
<path fill="#fdfdff" style="fill: var(--color1, #fdfdff)" opacity="0.7" d="M22.297 10.996h-15.877s0.091 4.781 5.064 5.828c0 0-0.33 3.322 2.464 3.659v7.954c-2.952 0.189-4.185 1.994-4.185 1.994h9.555s-1.395-1.806-4.366-1.994v-7.979c2.599-0.456 2.282-3.633 2.282-3.633 4.973-1.047 5.064-5.828 5.064-5.828v-0.001z"></path>
<path fill="#fdfdff" style="fill: var(--color1, #fdfdff)" opacity="0.4" d="M21.459 10.996h-13.797s0.145 4.25 4.467 5.164c0 0-0.473 3.613 2.35 3.613h0.21c2.259-0.398 2.004-3.708 2.004-3.708 4.562-1.133 4.768-5.070 4.768-5.070h-0.001z"></path>
<path fill="#7e8fdd" style="fill: var(--color4, #7e8fdd)" opacity="0.9" d="M22.297 10.996c0 0.305-3.554 0.553-7.938 0.553s-7.938-0.248-7.938-0.553 3.554-0.553 7.938-0.553c4.384 0 7.938 0.248 7.938 0.553z"></path>
<path fill="#fdfdff" style="fill: var(--color1, #fdfdff)" opacity="0.7" d="M22.297 10.996c0 0.305-3.554 0.553-7.938 0.553s-7.938-0.248-7.938-0.553 3.554-0.553 7.938-0.553c4.384 0 7.938 0.248 7.938 0.553z"></path>
<path fill="#7e8fdd" style="fill: var(--color4, #7e8fdd)" opacity="0.9" d="M20.332 13.819c-0.678 1.098-1.93 1.822-3.641 2.247 0 0 0.255 3.311-2.004 3.708h-0.21c-2.823 0-2.35-3.613-2.35-3.613-1.621-0.343-2.869-1.079-3.565-2.407 0 0 2.254-0.158 4.233 0.156s3.262 0.561 5.287 0.18c1.292-0.244 2.249-0.271 2.249-0.271l0.001 0.001z"></path>
<path fill="#242424" style="fill: var(--color3, #242424)" opacity="0.3" d="M8.563 13.753s2.875 1.315 6.949 1.064c4.074-0.251 4.82-0.998 4.82-0.998s-1.227 0.028-2.248 0.271c-1.021 0.243-2.619 0.192-3.324 0.111-0.686-0.078-3.651-0.683-6.197-0.446v-0.001z"></path>
<path fill="#7e8fdd" style="fill: var(--color4, #7e8fdd)" d="M11.309 15.546l-8.382-11.028 0.417-0.344 8.441 11.073s0.007 0.405-0.476 0.299v-0.001z"></path>
<path fill="#242424" style="fill: var(--color3, #242424)" opacity="0.3" d="M11.309 15.546l-8.382-11.028 0.417-0.344 8.441 11.073s0.007 0.405-0.476 0.299v-0.001z"></path>
<path fill="#7e8fdd" style="fill: var(--color4, #7e8fdd)" d="M10.565 8.279c-0.066-0.12-0.126-0.218-0.191-0.313l0.008 0.013c-1.27-1.902-3.758-2.472-5.557-1.276s-2.227 3.71-0.957 5.61c0.065 0.099 0.135 0.192 0.208 0.284l6.489-4.319z"></path>
<path fill="#242424" style="fill: var(--color3, #242424)" opacity="0.3" d="M10.565 8.279c-0.066-0.12-0.126-0.218-0.191-0.313l0.008 0.013c-1.27-1.902-3.758-2.472-5.557-1.276s-2.227 3.71-0.957 5.61c0.065 0.099 0.135 0.192 0.208 0.284l6.489-4.319z"></path>
<path fill="#7e8fdd" style="fill: var(--color4, #7e8fdd)" d="M10.575 8.273c-0.022-0.035-0.042-0.068-0.064-0.102-1.199-1.796-3.63-2.28-5.429-1.083s-2.285 3.623-1.085 5.418c0.023 0.034 0.046 0.066 0.069 0.099l6.509-4.332z"></path>
<path fill="#fdfdff" style="fill: var(--color1, #fdfdff)" opacity="0.8" d="M10.439 8.358c-0.019-0.032-0.040-0.065-0.060-0.096-1.151-1.723-3.484-2.189-5.211-1.040s-2.193 3.478-1.042 5.201c0.022 0.032 0.044 0.062 0.063 0.092l6.25-4.157z"></path>
<path fill="#7e8fdd" style="fill: var(--color4, #7e8fdd)" d="M7.656 9.911l2.16-1.443c0.057-0.039 0.094-0.104 0.094-0.177 0-0.052-0.019-0.1-0.050-0.137l0 0c-0.408-0.483-0.941-0.848-1.551-1.045l-0.024-0.007c-0.019-0.006-0.041-0.010-0.064-0.010-0.103 0-0.189 0.073-0.209 0.169l-0 0.001-0.509 2.545c-0.002 0.007-0.002 0.014-0.002 0.022 0 0.054 0.044 0.098 0.098 0.098 0.022 0 0.042-0.007 0.058-0.019l-0 0v0.002zM7.232 9.756l0.51-2.546c0.003-0.013 0.004-0.027 0.004-0.042 0-0.103-0.073-0.189-0.17-0.208l-0.001-0c-0.008-0.002-0.015-0.003-0.023-0.003-0.642-0.056-1.286 0.072-1.858 0.368-0.069 0.036-0.116 0.107-0.116 0.189 0 0.044 0.013 0.085 0.036 0.119l-0-0.001 1.446 2.162c0.018 0.023 0.046 0.037 0.077 0.037 0.045 0 0.084-0.031 0.095-0.073l0-0.001zM6.668 10.37l-2.551-0.51c-0.013-0.003-0.027-0.004-0.042-0.004-0.112 0-0.203 0.085-0.213 0.195l-0 0.001c-0.008 0.088-0.013 0.19-0.013 0.294 0 0.57 0.141 1.108 0.39 1.579l-0.009-0.018c0.036 0.069 0.107 0.116 0.19 0.116 0.036 0 0.069-0.009 0.099-0.024l-0.001 0.001c0.007-0.003 0.013-0.007 0.020-0.012l2.164-1.441c0.024-0.018 0.040-0.047 0.040-0.079 0-0.046-0.031-0.084-0.074-0.095l-0.001-0 0.001-0.001zM6.823 9.945l-1.444-2.16c-0.039-0.057-0.104-0.093-0.177-0.093-0.045 0-0.087 0.014-0.122 0.038l0.001-0c-0.006 0.003-0.011 0.008-0.016 0.012-0.484 0.407-0.85 0.939-1.048 1.547l-0.007 0.024c-0.006 0.019-0.010 0.042-0.010 0.065 0 0.103 0.073 0.189 0.17 0.209l0.001 0 2.55 0.508c0.054 0.009 0.105-0.027 0.113-0.081 0.001-0.005 0.001-0.011 0.001-0.017 0-0.020-0.006-0.038-0.016-0.053l0 0h0.002z"></path>
<path fill="#fdfdff" style="fill: var(--color1, #fdfdff)" opacity="0.3" d="M7.656 9.911l2.16-1.443c0.057-0.039 0.094-0.104 0.094-0.177 0-0.052-0.019-0.1-0.050-0.137l0 0c-0.408-0.483-0.941-0.848-1.551-1.045l-0.024-0.007c-0.019-0.006-0.041-0.010-0.064-0.010-0.103 0-0.189 0.073-0.209 0.169l-0 0.001-0.509 2.545c-0.002 0.007-0.002 0.014-0.002 0.022 0 0.054 0.044 0.098 0.098 0.098 0.022 0 0.042-0.007 0.058-0.019l-0 0v0.002zM7.232 9.756l0.51-2.546c0.003-0.013 0.004-0.027 0.004-0.042 0-0.103-0.073-0.189-0.17-0.208l-0.001-0c-0.008-0.002-0.015-0.003-0.023-0.003-0.642-0.056-1.286 0.072-1.858 0.368-0.069 0.036-0.116 0.107-0.116 0.189 0 0.044 0.013 0.085 0.036 0.119l-0-0.001 1.446 2.162c0.018 0.023 0.046 0.037 0.077 0.037 0.045 0 0.084-0.031 0.095-0.073l0-0.001zM6.668 10.37l-2.551-0.51c-0.013-0.003-0.027-0.004-0.042-0.004-0.112 0-0.203 0.085-0.213 0.195l-0 0.001c-0.008 0.088-0.013 0.19-0.013 0.294 0 0.57 0.141 1.108 0.39 1.579l-0.009-0.018c0.036 0.069 0.107 0.116 0.19 0.116 0.036 0 0.069-0.009 0.099-0.024l-0.001 0.001c0.007-0.003 0.013-0.007 0.020-0.012l2.164-1.441c0.024-0.018 0.040-0.047 0.040-0.079 0-0.046-0.031-0.084-0.074-0.095l-0.001-0 0.001-0.001zM6.823 9.945l-1.444-2.16c-0.039-0.057-0.104-0.093-0.177-0.093-0.045 0-0.087 0.014-0.122 0.038l0.001-0c-0.006 0.003-0.011 0.008-0.016 0.012-0.484 0.407-0.85 0.939-1.048 1.547l-0.007 0.024c-0.006 0.019-0.010 0.042-0.010 0.065 0 0.103 0.073 0.189 0.17 0.209l0.001 0 2.55 0.508c0.054 0.009 0.105-0.027 0.113-0.081 0.001-0.005 0.001-0.011 0.001-0.017 0-0.020-0.006-0.038-0.016-0.053l0 0h0.002z"></path>
<path fill="#7e8fdd" style="fill: var(--color4, #7e8fdd)" d="M4.987 11.231c-0.104 0.031-0.199 0.016-0.214-0.033s0.057-0.116 0.16-0.146c0.104-0.031 0.2-0.015 0.215 0.035s-0.058 0.116-0.16 0.145l-0.001-0.001z"></path>
<path fill="#fdfdff" style="fill: var(--color1, #fdfdff)" opacity="0.6" d="M4.987 11.231c-0.104 0.031-0.199 0.016-0.214-0.033s0.057-0.116 0.16-0.146c0.104-0.031 0.2-0.015 0.215 0.035s-0.058 0.116-0.16 0.145l-0.001-0.001z"></path>
<path fill="#7e8fdd" style="fill: var(--color4, #7e8fdd)" d="M5.566 10.615c-0.106 0.024-0.201 0.003-0.211-0.048s0.062-0.112 0.169-0.132c0.107-0.020 0.201-0.003 0.212 0.049s-0.064 0.109-0.17 0.132v-0.001z"></path>
<path fill="#fdfdff" style="fill: var(--color1, #fdfdff)" opacity="0.6" d="M5.566 10.615c-0.106 0.024-0.201 0.003-0.211-0.048s0.062-0.112 0.169-0.132c0.107-0.020 0.201-0.003 0.212 0.049s-0.064 0.109-0.17 0.132v-0.001z"></path>
<path fill="#7e8fdd" style="fill: var(--color4, #7e8fdd)" d="M8.444 8.252c-0.062 0.087-0.149 0.135-0.191 0.105s-0.025-0.126 0.037-0.213c0.062-0.088 0.148-0.135 0.19-0.105s0.025 0.126-0.036 0.214z"></path>
<path fill="#fdfdff" style="fill: var(--color1, #fdfdff)" opacity="0.6" d="M8.444 8.252c-0.062 0.087-0.149 0.135-0.191 0.105s-0.025-0.126 0.037-0.213c0.062-0.088 0.148-0.135 0.19-0.105s0.025 0.126-0.036 0.214zM5.611 9.095c0.080 0.073 0.118 0.163 0.083 0.201s-0.127 0.011-0.208-0.061c-0.080-0.072-0.117-0.162-0.083-0.201s0.128-0.011 0.208 0.060z"></path>
<path fill="#7e8fdd" style="fill: var(--color4, #7e8fdd)" d="M5.289 6.007c0.003 0.025 0.004 0.054 0.004 0.084 0 0.435-0.331 0.793-0.754 0.836l-0.004 0c-0.025 0.003-0.055 0.004-0.084 0.004-0.435 0-0.792-0.33-0.837-0.753l-0-0.004c-0.003-0.025-0.004-0.054-0.004-0.084 0-0.435 0.331-0.793 0.754-0.836l0.004-0c0.025-0.003 0.055-0.004 0.085-0.004 0.435 0 0.792 0.33 0.836 0.753l0 0.004z"></path>
<path fill="#fdfdff" style="fill: var(--color1, #fdfdff)" opacity="0.3" d="M3.803 5.766s-0.202 0.328-0.024 0.649c0.178 0.322 0.438 0.384 0.438 0.384s0.005-0.325-0.020-0.639c-0.025-0.314-0.394-0.394-0.394-0.394h0.001z"></path>
<path fill="#fdfdff" style="fill: var(--color1, #fdfdff)" opacity="0.27" d="M21.432 11.282c-4.462 0.361-9.048 0.348-13.743 0.002 0 0 0.012 2.129 1.872 3.71 0.622 0.529 1.492 0.937 2.574 1.165 0 0-0.473 3.613 2.35 3.613h0.21c2.259-0.398 2.004-3.708 2.004-3.708 1.011-0.251 1.802-0.53 2.431-0.983 2.207-1.592 2.303-3.8 2.303-3.8z"></path>
<path fill="#9cdfdf" style="fill: var(--color2, #9cdfdf)" d="M22.297 10.996c-0.005 0.044-0.052 0.064-0.087 0.082-0.271 0.109-0.568 0.137-0.855 0.18-0.993 0.124-1.994 0.175-2.994 0.22-3.663 0.12-7.349 0.156-10.999-0.22-0.287-0.043-0.584-0.072-0.855-0.18-0.035-0.019-0.081-0.039-0.087-0.082 0.005 0.044 0.053 0.063 0.087 0.082 0.271 0.108 0.568 0.136 0.855 0.178 3.651 0.366 7.335 0.315 10.999 0.212 0.999-0.042 2-0.091 2.994-0.212 0.287-0.042 0.584-0.070 0.855-0.178 0.035-0.019 0.081-0.038 0.087-0.082z"></path>
<path fill="#242424" style="fill: var(--color3, #242424)" opacity="0.3" d="M13.948 20.482v0.21s0.547 0.105 1.003-0.032v-0.203c-0.371 0.091-0.593 0.087-0.981 0.030z"></path>
<path fill="#9cdfdf" style="fill: var(--color2, #9cdfdf)" d="M12.94 28.593c0.471-0.128 1.011-0.202 1.569-0.202 0.449 0 0.887 0.048 1.309 0.139l-0.041-0.007c-0.375-0.071-0.806-0.112-1.247-0.112-0.564 0-1.113 0.066-1.638 0.192l0.048-0.010z"></path>
<path fill="#fdfdff" style="fill: var(--color1, #fdfdff)" opacity="0.3" d="M14.359 17.242c0 0 0 0 0 0 0.126 0 0.228-0.102 0.228-0.227v0c0-0.126-0.102-0.228-0.228-0.228s-0.228 0.102-0.228 0.228c0 0.126 0.102 0.227 0.228 0.227 0 0 0 0 0.001 0h-0zM13.72 17.766c0 0 0 0 0 0 0 0.096-0.078 0.174-0.174 0.174-0 0-0 0-0.001 0h0c-0.096 0-0.174-0.078-0.174-0.174s0.078-0.174 0.174-0.174v0c0 0 0 0 0 0 0.096 0 0.174 0.078 0.174 0.174 0 0 0 0 0 0v0zM15.881 18.303c0 0 0 0 0 0 0.062 0 0.111-0.050 0.111-0.111s-0.050-0.111-0.111-0.111v0c-0 0-0 0-0 0-0.062 0-0.111 0.050-0.111 0.111s0.050 0.111 0.111 0.111v0zM13.398 16.855c0 0 0 0 0 0 0.062 0 0.111-0.050 0.111-0.111s-0.050-0.111-0.111-0.111v0c-0 0-0 0-0 0-0.062 0-0.111 0.050-0.111 0.111s0.050 0.111 0.111 0.111v0zM15.424 18.719c0 0.155-0.126 0.281-0.281 0.281-0.002 0-0.004 0-0.007 0-0.155 0-0.281-0.126-0.281-0.281s0.126-0.281 0.281-0.281c0.002 0 0.005 0 0.007 0h-0c0.155 0 0.281 0.126 0.281 0.281z"></path>
</symbol>
<symbol id="burger-mobile" viewBox="0 0 32 32">
  <path d="M28 13.3335H4" stroke-width="2" stroke-linecap="round" stroke-linejoin="round"/>
  <path d="M28 8H4" stroke-width="2" stroke-linecap="round" stroke-linejoin="round"/>
  <path d="M28 18.6665H4" stroke-width="2" stroke-linecap="round" stroke-linejoin="round"/>
  <path d="M28 24H4" stroke-width="2" stroke-linecap="round" stroke-linejoin="round"/>
</symbol>
<symbol id="burger-tablet" viewBox="0 0 40 40">
  <path d="M35 16.6665H5" stroke-width="2" stroke-linecap="round" stroke-linejoin="round"/>
  <path d="M35 10H5" stroke-width="2" stroke-linecap="round" stroke-linejoin="round"/>
  <path d="M35 23.3335H5" stroke-width="2" stroke-linecap="round" stroke-linejoin="round"/>
  <path d="M35 30H5" stroke-width="2" stroke-linecap="round" stroke-linejoin="round"/>
</symbol>
<symbol id="nav-arrow" viewBox="0 0 24 24">
  <path d="M6 9L12 15L18 9" stroke-width="2" stroke-linecap="round" stroke-linejoin="round"/>
</symbol>
<symbol id="icon-close" viewBox="0 0 32 32" fill="none">
  <path d="M24 8L8 24" stroke="#FDFDFF" stroke-width="2" stroke-linecap="round" stroke-linejoin="round"/>
  <path d="M8 8L24 24" stroke="#FDFDFF" stroke-width="2" stroke-linecap="round" stroke-linejoin="round"/>
</symbol>
<symbol id="icon-modal-star" viewBox="0 0 349 349">
<path fill-rule="evenodd" clip-rule="evenodd" d="M29.8492 251.256C110.358 226.366 198.43 253.293 251.256 318.947C226.366 238.439 253.292 150.367 318.947 97.5406C238.438 122.431 150.366 95.5044 97.54 29.8498C122.43 110.358 95.5038 198.43 29.8492 251.256ZM0.1154 263.046C90.5525 210.715 125.195 97.4053 79.4821 3.44925L85.7509 0.116069C138.082 90.5532 251.391 125.195 345.347 79.4826L348.68 85.7514C258.243 138.082 223.601 251.392 269.314 345.348L263.045 348.681C210.714 258.244 97.4047 223.602 3.44858 269.314L0.1154 263.046Z" fill="#FDFDFF"/>
<path fill-rule="evenodd" clip-rule="evenodd" d="M29.8492 251.256C110.358 226.366 198.43 253.293 251.256 318.947C226.366 238.439 253.292 150.367 318.947 97.5406C238.438 122.431 150.366 95.5044 97.54 29.8498C122.43 110.358 95.5038 198.43 29.8492 251.256ZM0.1154 263.046C90.5525 210.715 125.195 97.4053 79.4821 3.44925L85.7509 0.116069C138.082 90.5532 251.391 125.195 345.347 79.4826L348.68 85.7514C258.243 138.082 223.601 251.392 269.314 345.348L263.045 348.681C210.714 258.244 97.4047 223.602 3.44858 269.314L0.1154 263.046Z" fill="#FDFDFF"/>
<path fill-rule="evenodd" clip-rule="evenodd" d="M258.993 284.274C249.349 250.045 230.83 205.138 205.65 157.781C180.47 110.424 153.596 69.9591 130.612 42.8232C119.081 29.2099 108.78 19.2517 100.381 13.4144C96.1723 10.4897 92.7645 8.82892 90.1726 8.1214C87.6253 7.42609 86.4495 7.78992 85.9514 8.05474C85.4533 8.31956 84.4942 9.09096 83.6462 11.5915C82.7834 14.136 82.2546 17.8899 82.3259 23.0144C82.4684 33.242 84.964 47.3503 89.8021 64.5219C99.4462 98.751 117.965 143.658 143.145 191.015C168.325 238.372 195.2 278.837 218.184 305.973C229.714 319.586 240.015 329.544 248.415 335.382C252.623 338.306 256.031 339.967 258.623 340.675C261.17 341.37 262.346 341.006 262.844 340.741C263.342 340.477 264.301 339.705 265.149 337.205C266.012 334.66 266.541 330.906 266.469 325.782C266.327 315.554 263.831 301.446 258.993 284.274ZM266.179 347.014C286.904 335.995 262.613 249.779 211.923 154.446C161.233 59.1122 103.341 -9.2376 82.6161 1.78189C61.8914 12.8014 86.1828 99.0173 136.872 194.351C187.562 289.684 245.455 358.034 266.179 347.014Z" fill="#FDFDFF"/>
<path fill-rule="evenodd" clip-rule="evenodd" d="M258.993 284.274C249.349 250.045 230.83 205.138 205.65 157.781C180.47 110.424 153.596 69.9591 130.612 42.8232C119.081 29.2099 108.78 19.2517 100.381 13.4144C96.1723 10.4897 92.7645 8.82892 90.1726 8.1214C87.6253 7.42609 86.4495 7.78992 85.9514 8.05474C85.4533 8.31956 84.4942 9.09096 83.6462 11.5915C82.7834 14.136 82.2546 17.8899 82.3259 23.0144C82.4684 33.242 84.964 47.3503 89.8021 64.5219C99.4462 98.751 117.965 143.658 143.145 191.015C168.325 238.372 195.2 278.837 218.184 305.973C229.714 319.586 240.015 329.544 248.415 335.382C252.623 338.306 256.031 339.967 258.623 340.675C261.17 341.37 262.346 341.006 262.844 340.741C263.342 340.477 264.301 339.705 265.149 337.205C266.012 334.66 266.541 330.906 266.469 325.782C266.327 315.554 263.831 301.446 258.993 284.274ZM266.179 347.014C286.904 335.995 262.613 249.779 211.923 154.446C161.233 59.1122 103.341 -9.2376 82.6161 1.78189C61.8914 12.8014 86.1828 99.0173 136.872 194.351C187.562 289.684 245.455 358.034 266.179 347.014Z" fill="#FDFDFF"/>
<path fill-rule="evenodd" clip-rule="evenodd" d="M64.5217 258.994C98.7508 249.35 143.658 230.831 191.015 205.65C238.372 180.47 278.837 153.596 305.973 130.612C319.586 119.081 329.544 108.78 335.382 100.381C338.306 96.1726 339.967 92.7648 340.675 90.1729C341.37 87.6256 341.006 86.4498 340.741 85.9517C340.477 85.4536 339.705 84.4945 337.205 83.6465C334.66 82.7837 330.906 82.2549 325.782 82.3263C315.554 82.4687 301.446 84.9643 284.274 89.8024C250.045 99.4465 205.138 117.966 157.781 143.146C110.424 168.326 69.959 195.2 42.823 218.184C29.2098 229.715 19.2516 240.016 13.4142 248.415C10.4895 252.623 8.82873 256.031 8.1212 258.623C7.42589 261.17 7.78972 262.346 8.05454 262.844C8.31936 263.342 9.09076 264.302 11.5913 265.15C14.1358 266.012 17.8897 266.541 23.0142 266.47C33.2418 266.327 47.3501 263.832 64.5217 258.994ZM1.78169 266.18C12.8012 286.904 99.0172 262.613 194.35 211.923C289.684 161.234 358.034 103.341 347.014 82.6164C335.995 61.8917 249.779 86.1832 154.445 136.873C59.1121 187.562 -9.23779 245.455 1.78169 266.18Z" fill="#FDFDFF"/>
<path fill-rule="evenodd" clip-rule="evenodd" d="M64.5217 258.994C98.7508 249.35 143.658 230.831 191.015 205.65C238.372 180.47 278.837 153.596 305.973 130.612C319.586 119.081 329.544 108.78 335.382 100.381C338.306 96.1726 339.967 92.7648 340.675 90.1729C341.37 87.6256 341.006 86.4498 340.741 85.9517C340.477 85.4536 339.705 84.4945 337.205 83.6465C334.66 82.7837 330.906 82.2549 325.782 82.3263C315.554 82.4687 301.446 84.9643 284.274 89.8024C250.045 99.4465 205.138 117.966 157.781 143.146C110.424 168.326 69.959 195.2 42.823 218.184C29.2098 229.715 19.2516 240.016 13.4142 248.415C10.4895 252.623 8.82873 256.031 8.1212 258.623C7.42589 261.17 7.78972 262.346 8.05454 262.844C8.31936 263.342 9.09076 264.302 11.5913 265.15C14.1358 266.012 17.8897 266.541 23.0142 266.47C33.2418 266.327 47.3501 263.832 64.5217 258.994ZM1.78169 266.18C12.8012 286.904 99.0172 262.613 194.35 211.923C289.684 161.234 358.034 103.341 347.014 82.6164C335.995 61.8917 249.779 86.1832 154.445 136.873C59.1121 187.562 -9.23779 245.455 1.78169 266.18Z" fill="#FDFDFF"/>
</symbol>
<symbol id="moon-svg" viewBox="0 0 512 512">
  <path  d="M283.211 512c78.962 0 151.079-35.925 198.857-94.792 7.068-8.708-.639-21.43-11.562-19.35-124.203 23.654-238.262-71.576-238.262-196.954 0-72.222 38.662-138.635 101.498-174.394 9.686-5.512 7.25-20.197-3.756-22.23A258.156 258.156 0 0 0 283.211 0c-141.309 0-256 114.511-256 256 0 141.309 114.511 256 256 256z"></path>
</symbol>
<symbol id="sun-svg" viewBox="0 0 512 512">
  <path  d="M256 160c-52.9 0-96 43.1-96 96s43.1 96 96 96 96-43.1 96-96-43.1-96-96-96zm246.4 80.5l-94.7-47.3 33.5-100.4c4.5-13.6-8.4-26.5-21.9-21.9l-100.4 33.5-47.4-94.8c-6.4-12.8-24.6-12.8-31 0l-47.3 94.7L92.7 70.8c-13.6-4.5-26.5 8.4-21.9 21.9l33.5 100.4-94.7 47.4c-12.8 6.4-12.8 24.6 0 31l94.7 47.3-33.5 100.5c-4.5 13.6 8.4 26.5 21.9 21.9l100.4-33.5 47.3 94.7c6.4 12.8 24.6 12.8 31 0l47.3-94.7 100.4 33.5c13.6 4.5 26.5-8.4 21.9-21.9l-33.5-100.4 94.7-47.3c13-6.5 13-24.7.2-31.1zm-155.9 106c-49.9 49.9-131.1 49.9-181 0-49.9-49.9-49.9-131.1 0-181 49.9-49.9 131.1-49.9 181 0 49.9 49.9 49.9 131.1 0 181z"></path>
</symbol>
 <defs>
                <svg></svg>
            </defs>
</defs>
</svg>
